<svg xmlns="http://www.w3.org/2000/svg" viewBox="0 0 800 200" width="800" height="200">
  <defs>
    <style>
      @keyframes glow {
        0%, 100% { opacity: 0.6; }
        50% { opacity: 1; }
      }
      @keyframes scanline {
        0% { transform: translateY(0); }
        100% { transform: translateY(4px); }
      }
      @keyframes textFlicker {
        0%, 100% { opacity: 1; }
        50% { opacity: 0.8; }
      }
      .glow { animation: glow 2s ease-in-out infinite; }
      .flicker { animation: textFlicker 0.1s ease-in-out infinite; }
    </style>
  </defs>
  
  <!-- Background -->
  <rect width="800" height="200" fill="#040406"/>
  
  <!-- Scanlines -->
  <g opacity="0.15">
    <rect x="0" y="0" width="800" height="2" fill="#000"/>
    <rect x="0" y="4" width="800" height="2" fill="#000"/>
    <rect x="0" y="8" width="800" height="2" fill="#000"/>
    <rect x="0" y="12" width="800" height="2" fill="#000"/>
    <rect x="0" y="16" width="800" height="2" fill="#000"/>
    <rect x="0" y="20" width="800" height="2" fill="#000"/>
    <rect x="0" y="24" width="800" height="2" fill="#000"/>
    <rect x="0" y="28" width="800" height="2" fill="#000"/>
    <rect x="0" y="32" width="800" height="2" fill="#000"/>
    <rect x="0" y="36" width="800" height="2" fill="#000"/>
    <rect x="0" y="40" width="800" height="2" fill="#000"/>
    <rect x="0" y="44" width="800" height="2" fill="#000"/>
    <rect x="0" y="48" width="800" height="2" fill="#000"/>
    <rect x="0" y="52" width="800" height="2" fill="#000"/>
    <rect x="0" y="56" width="800" height="2" fill="#000"/>
    <rect x="0" y="60" width="800" height="2" fill="#000"/>
    <rect x="0" y="64" width="800" height="2" fill="#000"/>
    <rect x="0" y="68" width="800" height="2" fill="#000"/>
    <rect x="0" y="72" width="800" height="2" fill="#000"/>
    <rect x="0" y="76" width="800" height="2" fill="#000"/>
    <rect x="0" y="80" width="800" height="2" fill="#000"/>
    <rect x="0" y="84" width="800" height="2" fill="#000"/>
    <rect x="0" y="88" width="800" height="2" fill="#000"/>
    <rect x="0" y="92" width="800" height="2" fill="#000"/>
    <rect x="0" y="96" width="800" height="2" fill="#000"/>
    <rect x="0" y="100" width="800" height="2" fill="#000"/>
    <rect x="0" y="104" width="800" height="2" fill="#000"/>
    <rect x="0" y="108" width="800" height="2" fill="#000"/>
    <rect x="0" y="112" width="800" height="2" fill="#000"/>
    <rect x="0" y="116" width="800" height="2" fill="#000"/>
    <rect x="0" y="120" width="800" height="2" fill="#000"/>
    <rect x="0" y="124" width="800" height="2" fill="#000"/>
    <rect x="0" y="128" width="800" height="2" fill="#000"/>
    <rect x="0" y="132" width="800" height="2" fill="#000"/>
    <rect x="0" y="136" width="800" height="2" fill="#000"/>
    <rect x="0" y="140" width="800" height="2" fill="#000"/>
    <rect x="0" y="144" width="800" height="2" fill="#000"/>
    <rect x="0" y="148" width="800" height="2" fill="#000"/>
    <rect x="0" y="152" width="800" height="2" fill="#000"/>
    <rect x="0" y="156" width="800" height="2" fill="#000"/>
    <rect x="0" y="160" width="800" height="2" fill="#000"/>
    <rect x="0" y="164" width="800" height="2" fill="#000"/>
    <rect x="0" y="168" width="800" height="2" fill="#000"/>
    <rect x="0" y="172" width="800" height="2" fill="#000"/>
    <rect x="0" y="176" width="800" height="2" fill="#000"/>
    <rect x="0" y="180" width="800" height="2" fill="#000"/>
    <rect x="0" y="184" width="800" height="2" fill="#000"/>
    <rect x="0" y="188" width="800" height="2" fill="#000"/>
    <rect x="0" y="192" width="800" height="2" fill="#000"/>
    <rect x="0" y="196" width="800" height="2" fill="#000"/>
  </g>
  
  <!-- Border -->
  <rect x="2" y="2" width="796" height="196" fill="none" stroke="#b8860b" stroke-width="2" opacity="0.5"/>
  
  <!-- Title -->
  <text x="400" y="60" text-anchor="middle" fill="#ffd700" font-family="monospace" font-size="36" font-weight="bold" class="glow">
    BOB'S GAMES
  </text>
  
  <!-- Subtitle -->
  <text x="400" y="90" text-anchor="middle" fill="#b8860b" font-family="monospace" font-size="14" letter-spacing="4">
    SOVEREIGN ASSEMBLY BUILDS
  </text>
  
  <!-- Bob Robot ASCII Art -->
  <text x="400" y="130" text-anchor="middle" fill="#ffd700" font-family="monospace" font-size="10" class="flicker">
    <tspan x="400" dy="0">  ▄▄▄  ▄▄▄  ▄▄▄  ▄▄▄▄     ▄▄▄  ▄▄▄  ▄▄   ▄▄▄▄▄▄▄▄▄▄▄▄▄▄</tspan>
    <tspan x="400" dy="12"> ████ ████ ████ ████    ████ ████ ████ ████████████████</tspan>
    <tspan x="400" dy="12"> ████ ████ ████ ████    ████ ████ ████ ████████████████</tspan>
    <tspan x="400" dy="12"> ████ ████ ████ ████    ████ ████ ████ ████████████████</tspan>
    <tspan x="400" dy="12"> ████ ████ ████ ████    ████ ████ ████ ████████████████</tspan>
    <tspan x="400" dy="12">  ▀▀▀  ▀▀▀  ▀▀▀  ▀▀▀▀     ▀▀▀  ▀▀▀  ▀▀▀     ▀▀▀▀▀▀▀▀▀▀▀▀▀▀</tspan>
  </text>
  
  <!-- Status -->
  <text x="400" y="170" text-anchor="middle" fill="#00ff88" font-family="monospace" font-size="12">
    BOOT VERIFIED · AGENT ONLINE · PRESS START
  </text>
  
  <!-- Corner decorations -->
  <rect x="10" y="10" width="20" height="2" fill="#ffd700" opacity="0.5"/>
  <rect x="10" y="10" width="2" height="20" fill="#ffd700" opacity="0.5"/>
  <rect x="770" y="10" width="20" height="2" fill="#ffd700" opacity="0.5"/>
  <rect x="788" y="10" width="2" height="20" fill="#ffd700" opacity="0.5"/>
  <rect x="10" y="188" width="20" height="2" fill="#ffd700" opacity="0.5"/>
  <rect x="10" y="170" width="2" height="20" fill="#ffd700" opacity="0.5"/>
  <rect x="770" y="188" width="20" height="2" fill="#ffd700" opacity="0.5"/>
  <rect x="788" y="170" width="2" height="20" fill="#ffd700" opacity="0.5"/>
</svg>
